# xmcd
#
# Track frame offsets:
#	150
#	7829
#	19045
#	33762
#	49421
#	59841
#	70963
#	92412
#	108683
#	121002
#	133654
#	147212
#	157406
#	172790
#
# Disc length: 2438
#
# Revision: 1
# Processed by: cddbd v1.5.1PL0 Copyright (c) Steve Scherf et al.
# Submitted via: audiograbber 1.83.01
# Normalized: r0:DSETVAR1
#
DISCID=bb09840e
DTITLE=Various Artist - Country Gospel
DYEAR=2003
DGENRE=Gospel
TTITLE0=Johnny Cash - If The Good Lord's Willing
TTITLE1=Patsy Cline - I Go To Church On A Sunday (Dear God)
TTITLE2=Kenny Rogers - All God's Lonely Children
TTITLE3=Freddy Fender - Jesus Loves Me
TTITLE4=Ferlin Huskey - The Wings Of A Dove
TTITLE5=Oak Ridge Quartet - Do Unto Others
TTITLE6=Frankie Lane - Sunday Morning Going Down
TTITLE7=Slim Whitman - The Three Bells
TTITLE8=Hank Williams - I Saw The Light
TTITLE9=Patsy Cline - Just A Closer Walk With Thee
TTITLE10=The Brownsferry Four - Will The Circle Be Unbroken
TTITLE11=Frankie Lane - I Believe
TTITLE12=Wanda Jackson - Jesus Is The Answer
TTITLE13=Glen Campbell - Try A Little Kindness
EXTD=
EXTT0=
EXTT1=
EXTT2=
EXTT3=
EXTT4=
EXTT5=
EXTT6=
EXTT7=
EXTT8=
EXTT9=
EXTT10=
EXTT11=
EXTT12=
EXTT13=
PLAYORDER=
